<svg xmlns="http://www.w3.org/2000/svg" viewBox="0 0 400 400" width="100%" height="100%">
  <rect width="100%" height="100%" fill="#ffffff"/>
  
  <g transform="translate(100, 80)">
    <path d="M 100,20 C 70,20 40,40 40,80 C 40,140 75,180 90,220 C 93,228 97,240 100,240 C 103,240 107,228 110,220 C 115,207 120,195 125,180 C 110,160 95,130 95,90 C 95,50 110,30 120,25 C 113,22 107,20 100,20 Z" fill="#2b4c99" />
    
    <path d="M 100,20 C 107,20 113,22 120,25 C 110,30 95,50 95,90 C 95,130 110,160 125,180 C 135,192 145,205 150,220 C 153,228 157,240 160,240 C 163,240 167,228 170,220 C 185,180 220,140 220,80 C 220,40 190,20 160,20 C 140,20 125,30 120,35 C 125,30 140,20 100,20 Z" fill="#00b4d8" />
    
    <path d="M 25,120 Q 100,190 195,100" fill="none" stroke="#0077b6" stroke-width="8" stroke-linecap="round" opacity="0.3"/>
  </g>
  
  <text x="200" y="340" font-family="'Montserrat', 'Arial', sans-serif" font-size="22" font-weight="bold" fill="#2b4c99" text-anchor="middle" letter-spacing="2">SORRISO CURITIBA</text>
  <text x="200" y="365" font-family="'Montserrat', 'Arial', sans-serif" font-size="12" font-weight="500" fill="#666666" text-anchor="middle" letter-spacing="4">CENTRO ODONTOLÓGICO</text>
</svg>
